<svg width="15" height="14" viewBox="0 0 15 14" fill="none" xmlns="http://www.w3.org/2000/svg">
<path d="M7.5 14L6.62862 13.1913C5.31994 11.9656 4.2377 10.9123 3.38191 10.0315C2.52612 9.15056 1.84796 8.36654 1.34743 7.67945C0.846908 6.99249 0.497237 6.36578 0.298421 5.79932C0.0994737 5.23299 0 4.65831 0 4.07528C0 2.91858 0.377763 1.95016 1.13329 1.17001C1.88895 0.390004 2.82697 0 3.94737 0C4.63658 0 5.28789 0.166407 5.90132 0.499221C6.51474 0.832036 7.04763 1.30932 7.5 1.93107C7.95237 1.30932 8.48526 0.832036 9.09868 0.499221C9.71211 0.166407 10.3634 0 11.0526 0C12.173 0 13.1111 0.390004 13.8667 1.17001C14.6222 1.95016 15 2.91858 15 4.07528C15 4.65831 14.9005 5.23299 14.7016 5.79932C14.5028 6.36578 14.1531 6.99249 13.6526 7.67945C13.152 8.36654 12.4751 9.15056 11.6218 10.0315C10.7687 10.9123 9.6852 11.9656 8.37138 13.1913L7.5 14ZM7.5 12.3481C8.76316 11.1747 9.80263 10.1689 10.6184 9.33075C11.4342 8.49274 12.0789 7.76469 12.5526 7.14661C13.0263 6.52852 13.3553 5.97965 13.5395 5.49999C13.7237 5.02047 13.8158 4.54556 13.8158 4.07528C13.8158 3.26022 13.5526 2.58101 13.0263 2.03764C12.5 1.49427 11.8421 1.22258 11.0526 1.22258C10.4292 1.22258 9.85303 1.40516 9.32408 1.7703C8.79526 2.13558 8.37651 2.6437 8.06783 3.29466H6.93217C6.61836 2.6384 6.19829 2.12899 5.67197 1.76643C5.14566 1.40386 4.57079 1.22258 3.94737 1.22258C3.16289 1.22258 2.50625 1.49427 1.97743 2.03764C1.44862 2.58101 1.18421 3.26022 1.18421 4.07528C1.18421 4.54556 1.27632 5.02047 1.46053 5.49999C1.64474 5.97965 1.97368 6.52852 2.44737 7.14661C2.92105 7.76469 3.56579 8.49145 4.38158 9.32688C5.19737 10.1623 6.23684 11.1694 7.5 12.3481Z" fill="#BFBFBF"/>
</svg>
