<svg width="30" height="30" viewBox="0 0 30 30" fill="none" xmlns="http://www.w3.org/2000/svg">
<rect width="30" height="30" rx="15" fill="#BFBFBF"/>
<path d="M15 24L13.9543 23.0757C12.3839 21.6749 11.0852 20.4712 10.0583 19.4646C9.03134 18.4578 8.21755 17.5618 7.61692 16.7765C7.01629 15.9914 6.59668 15.2752 6.35811 14.6278C6.11937 13.9806 6 13.3238 6 12.6575C6 11.3355 6.45332 10.2287 7.35995 9.33716C8.26674 8.44572 9.39237 8 10.7368 8C11.5639 8 12.3455 8.19018 13.0816 8.57054C13.8177 8.9509 14.4572 9.49636 15 10.2069C15.5428 9.49636 16.1823 8.9509 16.9184 8.57054C17.6545 8.19018 18.4361 8 19.2632 8C20.6076 8 21.7333 8.44572 22.6401 9.33716C23.5467 10.2287 24 11.3355 24 12.6575C24 13.3238 23.8806 13.9806 23.6419 14.6278C23.4033 15.2752 22.9837 15.9914 22.3831 16.7765C21.7824 17.5618 20.9702 18.4578 19.9462 19.4646C18.9224 20.4712 17.6222 21.6749 16.0457 23.0757L15 24ZM15 22.1121C16.5158 20.7711 17.7632 19.6216 18.7421 18.6637C19.7211 17.706 20.4947 16.8739 21.0632 16.1676C21.6316 15.4612 22.0263 14.8339 22.2474 14.2857C22.4684 13.7377 22.5789 13.1949 22.5789 12.6575C22.5789 11.726 22.2632 10.9497 21.6316 10.3287C21 9.70773 20.2105 9.39724 19.2632 9.39724C18.5151 9.39724 17.8236 9.60589 17.1889 10.0232C16.5543 10.4407 16.0518 11.0214 15.6814 11.7653H14.3186C13.942 11.0153 13.4379 10.4331 12.8064 10.0188C12.1748 9.60442 11.4849 9.39724 10.7368 9.39724C9.79547 9.39724 9.0075 9.70773 8.37292 10.3287C7.73834 10.9497 7.42105 11.726 7.42105 12.6575C7.42105 13.1949 7.53158 13.7377 7.75263 14.2857C7.97368 14.8339 8.36842 15.4612 8.93684 16.1676C9.50526 16.8739 10.2789 17.7045 11.2579 18.6593C12.2368 19.6141 13.4842 20.765 15 22.1121Z" fill="white"/>
</svg>
